<?xml version="1.0" standalone="no"?>
<!DOCTYPE svg PUBLIC "-//W3C//DTD SVG 20010904//EN"
 "http://www.w3.org/TR/2001/REC-SVG-20010904/DTD/svg10.dtd">
<svg version="1.0" xmlns="http://www.w3.org/2000/svg"
 width="600.000000pt" height="600.000000pt" viewBox="0 0 600.000000 600.000000"
 preserveAspectRatio="xMidYMid meet">
<metadata>
Created by potrace 1.14, written by Peter Selinger 2001-2017
</metadata>
<g transform="translate(0.000000,600.000000) scale(0.100000,-0.100000)"
fill="#000000" stroke="none">
<path d="M2789 5995 c-4 -3 -22 -7 -40 -9 -19 -2 -63 -7 -99 -10 -36 -4 -72
-9 -80 -11 -8 -3 -33 -7 -56 -10 -41 -5 -158 -28 -204 -40 -14 -3 -36 -8 -50
-11 -14 -3 -41 -10 -60 -16 -19 -7 -37 -13 -40 -13 -17 -3 -125 -38 -148 -47
-15 -6 -31 -10 -36 -9 -4 1 -13 -2 -20 -7 -6 -5 -38 -19 -71 -32 -94 -36 -366
-172 -399 -199 -9 -7 -16 -11 -16 -7 0 8 -122 -74 -132 -89 -4 -5 -8 -7 -8 -2
0 10 -154 -103 -211 -155 -16 -15 -29 -25 -29 -22 0 3 -17 -11 -37 -30 -21
-20 -42 -36 -46 -36 -5 0 -5 -4 -2 -10 3 -5 0 -10 -7 -10 -12 0 -98 -75 -98
-86 0 -9 -53 -54 -63 -54 -6 0 -8 -2 -5 -5 3 -3 -17 -28 -43 -55 -27 -28 -47
-50 -44 -50 3 0 -9 -13 -25 -29 -17 -15 -30 -32 -30 -37 0 -5 -9 -15 -20 -22
-12 -7 -19 -16 -16 -20 3 -5 -6 -16 -19 -26 -14 -10 -22 -22 -19 -27 3 -5 1
-9 -4 -9 -10 0 -112 -144 -112 -159 0 -6 -4 -11 -8 -11 -5 0 -14 -10 -21 -22
-6 -13 -20 -36 -31 -53 -32 -49 -74 -129 -72 -137 1 -5 -2 -8 -7 -8 -7 0 -35
-53 -36 -70 0 -3 -8 -16 -17 -30 -9 -14 -18 -32 -20 -40 -2 -8 -6 -17 -9 -20
-4 -4 -20 -40 -84 -195 -23 -55 -95 -288 -100 -325 -1 -8 -5 -22 -8 -30 -4 -8
-15 -64 -26 -125 -27 -145 -28 -150 -36 -231 -4 -38 -10 -78 -13 -89 -11 -42
-13 -423 -3 -505 6 -47 13 -105 16 -130 7 -57 37 -230 50 -285 23 -100 39
-158 74 -265 23 -69 45 -134 50 -145 5 -11 19 -45 31 -75 66 -163 153 -325
267 -499 41 -63 80 -120 86 -127 22 -25 33 -39 43 -55 14 -26 96 -121 205
-240 15 -15 30 -25 34 -21 5 4 5 2 2 -4 -4 -6 23 -38 59 -70 36 -33 84 -76
107 -97 23 -22 58 -51 77 -65 19 -15 51 -39 70 -55 48 -38 44 -35 146 -105 50
-34 96 -62 102 -62 5 0 12 -4 14 -8 9 -23 291 -165 458 -232 116 -46 348 -119
435 -136 50 -10 183 -34 210 -38 70 -10 113 -16 170 -23 81 -11 494 -10 575 0
104 14 112 15 165 22 28 4 68 11 90 15 22 5 54 11 71 14 222 39 597 178 829
308 149 83 364 229 455 307 14 12 52 46 85 74 86 75 199 190 283 287 40 47 81
95 92 107 11 12 20 27 20 32 0 5 4 11 8 13 10 3 112 144 112 153 0 3 5 11 10
18 47 56 175 293 248 457 90 205 176 507 207 730 3 25 8 57 11 72 14 87 19
177 19 378 0 248 -5 304 -46 539 -59 337 -195 701 -371 992 -93 154 -219 330
-231 322 -5 -3 -7 -2 -4 4 4 6 -6 24 -21 41 -15 16 -46 52 -68 79 -76 88 -165
178 -175 175 -5 -1 -9 2 -9 8 0 8 -40 48 -100 100 -14 12 -36 31 -50 43 -14
12 -50 41 -80 64 -30 23 -60 46 -65 51 -6 4 -53 37 -105 72 -386 259 -825 425
-1290 485 -25 3 -63 8 -85 12 -58 8 -499 16 -506 8z"/>
</g>
</svg>
